<?xml version="1.0" encoding="UTF-8" standalone="no"?>
<!-- Created with Inkscape (http://www.inkscape.org/) -->

<svg
   xmlns:dc="http://purl.org/dc/elements/1.1/"
   xmlns:cc="http://creativecommons.org/ns#"
   xmlns:rdf="http://www.w3.org/1999/02/22-rdf-syntax-ns#"
   xmlns:svg="http://www.w3.org/2000/svg"
   xmlns="http://www.w3.org/2000/svg"
   xmlns:sodipodi="http://sodipodi.sourceforge.net/DTD/sodipodi-0.dtd"
   xmlns:inkscape="http://www.inkscape.org/namespaces/inkscape"
   width="84.684036mm"
   height="90.557617mm"
   viewBox="0 0 84.684036 90.557617"
   version="1.1"
   id="svg122"
   inkscape:version="0.92.4 (5da689c313, 2019-01-14)"
   sodipodi:docname="Blatt.svg">
  <defs
     id="defs116" />
  <sodipodi:namedview
     id="base"
     pagecolor="#ffffff"
     bordercolor="#666666"
     borderopacity="1.0"
     inkscape:pageopacity="0.0"
     inkscape:pageshadow="2"
     inkscape:zoom="0.35"
     inkscape:cx="-189.96723"
     inkscape:cy="128.27538"
     inkscape:document-units="mm"
     inkscape:current-layer="layer1"
     showgrid="false"
     fit-margin-top="0"
     fit-margin-left="0"
     fit-margin-right="0"
     fit-margin-bottom="0"
     inkscape:window-width="1920"
     inkscape:window-height="1017"
     inkscape:window-x="-8"
     inkscape:window-y="-8"
     inkscape:window-maximized="1" />
  <metadata
     id="metadata119">
    <rdf:RDF>
      <cc:Work
         rdf:about="">
        <dc:format>image/svg+xml</dc:format>
        <dc:type
           rdf:resource="http://purl.org/dc/dcmitype/StillImage" />
        <dc:title></dc:title>
      </cc:Work>
    </rdf:RDF>
  </metadata>
  <g
     inkscape:label="Ebene 1"
     inkscape:groupmode="layer"
     id="layer1"
     transform="translate(-124.72347,-92.21524)">
    <path
       inkscape:connector-curvature="0"
       id="path4293"
       style="fill:#79af4d;fill-opacity:1;fill-rule:evenodd;stroke:none;stroke-width:0.19709268"
       d="m 130.63591,93.634273 -0.0118,0.03548 c -0.86328,2.010306 -1.53735,3.926009 -2.17594,5.900839 v 0 c -0.63859,1.974828 -1.18258,3.949658 -1.65561,5.936308 v 0 c -0.93424,3.98514 -1.62013,8.00575 -1.91578,12.06184 v 0 c -0.15373,2.02213 -0.18921,4.06791 -0.11826,6.10187 v 0 c 0.0591,2.04578 0.272,4.09156 0.59129,6.12552 v 0 c 0.6859,4.07974 1.8803,8.14765 3.83156,12.06184 v 0 c 0.95789,1.963 2.14047,3.86688 3.45313,5.73529 v 0 c 1.32449,1.85657 2.85002,3.6422 4.54111,5.34504 v 0 c 1.72656,1.69103 3.61869,3.28745 5.66455,4.76561 v 0 c 2.05769,1.47817 4.26911,2.82626 6.62244,4.02062 v 0 c 2.34151,1.21801 4.82492,2.25785 7.36747,3.19205 v 0 c 2.55437,0.9342 5.20335,1.66737 7.86415,2.35324 v 0 c 1.35997,0.28381 2.68446,0.61492 4.05625,0.85143 v 0 l 2.03403,0.36658 c 0.6859,0.10643 1.3718,0.21286 2.05769,0.30746 v 0 c 1.37179,0.21286 2.75541,0.34294 4.1272,0.49667 v 0 c 1.38362,0.1419 2.76724,0.22468 4.15086,0.33111 v 0 l 0.11825,-0.50849 c -2.63715,-0.55579 -5.26247,-1.12341 -7.81684,-1.80928 v 0 c -2.5662,-0.63857 -5.04962,-1.43087 -7.48573,-2.24681 v 0 c -2.40064,-0.86325 -4.76579,-1.76119 -6.97722,-2.82547 v 0 c -2.22324,-1.04063 -4.37554,-2.14039 -6.33862,-3.39387 v 0 c -1.97491,-1.25349 -3.83156,-2.5661 -5.5463,-3.97331 v 0 c -1.69109,-1.41904 -3.22844,-2.93269 -4.60023,-4.50546 v 0 c -1.39544,-1.57277 -2.63715,-3.20466 -3.70147,-4.90751 v 0 c -1.07615,-1.70285 -1.96308,-3.46482 -2.76724,-5.23862 v 0 c -0.81598,-1.78563 -1.44275,-3.61855 -1.97491,-5.4633 v 0 c -0.55581,-1.84476 -0.96971,-3.71316 -1.30083,-5.59339 v 0 c -0.35478,-1.88022 -0.55582,-3.7841 -0.70955,-5.68798 v 0 c -0.15374,-1.9157 -0.20104,-3.83141 -0.18921,-5.74711 v 0 c 0.0473,-3.84323 0.40207,-7.71011 1.11162,-11.54152 v 0 c 0.34295,-1.8684 0.75685,-3.72498 1.24171,-5.58156 v 0 c 1.20623,1.60825 2.49524,3.18102 3.90251,4.68283 v 0 c 1.4664,1.62008 3.08653,3.16919 4.75397,4.68284 v 0 l 2.57802,2.21133 c 0.88694,0.70952 1.82117,1.40722 2.73176,2.10491 v 0 c 0.46121,0.34294 0.89876,0.70952 1.38362,1.04063 v 0 l 1.45457,0.99333 c 0.98154,0.65039 1.91578,1.33626 2.94462,1.95118 v 0 c 2.05769,1.22984 4.0326,2.50697 6.22037,3.60673 v 0 l 3.22844,1.69102 3.38217,1.56095 c 2.24691,1.08792 4.54111,1.93935 6.82349,2.8499 v 0 l 3.4413,1.34809 c 0.55582,0.21286 1.12345,0.42571 1.66744,0.65039 v 0 l 1.59648,0.73318 c 1.0998,0.46118 2.06951,1.0288 3.09836,1.54911 v 0 c 0.52033,0.26016 0.96971,0.57944 1.45457,0.86325 v 0 c 0.47303,0.29563 0.98154,0.56762 1.4191,0.89873 v 0 c 1.83299,1.22983 3.42947,2.62522 4.82492,4.11521 v 0 c 1.38362,1.50182 2.43611,3.15737 3.22844,4.86021 v 0 c 1.561,3.44118 1.79752,7.17798 1.01702,10.82018 v 0 c -0.37843,1.8211 -0.99337,3.61855 -1.79752,5.38053 v 0 c -0.81598,1.75015 -1.82117,3.48847 -3.05106,5.09592 v 0 l 0.61495,0.27199 c 1.38361,-1.61928 2.50706,-3.33396 3.47678,-5.09593 v 0 c 0.94606,-1.7738 1.71474,-3.5949 2.23507,-5.47513 v 0 c 1.04067,-3.7368 1.04067,-7.68646 -0.42573,-11.43509 v 0 c -0.7332,-1.8684 -1.76204,-3.6895 -3.16931,-5.3687 v 0 c -1.41909,-1.65555 -3.06288,-3.22832 -4.96683,-4.61188 v 0 c -0.44938,-0.37841 -0.96972,-0.67405 -1.45457,-1.01698 v 0 c -0.50851,-0.31928 -0.98154,-0.67405 -1.5137,-0.96968 v 0 c -1.06433,-0.59126 -2.08134,-1.24166 -3.20479,-1.7738 v 0 l -1.66744,-0.81595 c -0.55581,-0.27198 -1.1471,-0.50849 -1.71474,-0.75682 v 0 l -3.35853,-1.45451 c -2.22325,-0.96968 -4.5411,-1.88023 -6.56331,-2.95634 v 0 l -3.13384,-1.54912 -3.01557,-1.70285 c -2.05769,-1.09975 -3.89069,-2.37689 -5.80646,-3.5949 v 0 c -0.94607,-0.60309 -1.79753,-1.28896 -2.70811,-1.92753 v 0 l -1.34814,-0.9815 c -0.44938,-0.31928 -0.83963,-0.68587 -1.26536,-1.01698 v 0 c -0.83963,-0.69769 -1.69109,-1.37174 -2.50707,-2.06943 v 0 l -2.35333,-2.15221 c -1.49005,-1.46634 -2.95645,-2.95634 -4.26911,-4.51728 v 0 c -1.33632,-1.53729 -2.53072,-3.13371 -3.64235,-4.753779 v 0 c -0.50851,-0.815948 -1.06432,-1.631896 -1.5137,-2.459669 v 0 c -0.23651,-0.402061 -0.4612,-0.815948 -0.66224,-1.229834 v 0 c -0.10643,-0.212856 -0.22469,-0.413887 -0.30747,-0.614918 v 0 c -0.0828,-0.20103 -0.18922,-0.425711 -0.24834,-0.567615 v 0 c -0.24835,-0.638568 -0.93424,-1.182534 -1.86848,-1.383565 v 0 c -0.27199,-0.07095 -0.54399,-0.0946 -0.81598,-0.0946 v 0 c -1.1944,-10e-7 -2.30603,0.55579 -2.67263,1.419039" />
    <path
       inkscape:connector-curvature="0"
       id="path4295"
       style="fill:#79af4d;fill-opacity:1;fill-rule:evenodd;stroke:none;stroke-width:0.19709268"
       d="m 145.16981,126.93441 c 0,0 0.18921,1.1707 0.80415,3.16918 v 0 c 0.30747,0.99333 0.72138,2.19952 1.28902,3.57125 v 0 c 0.59128,1.35992 1.25353,2.89721 2.14046,4.54093 v 0 c 0.86329,1.64372 1.8803,3.4057 3.07471,5.23862 v 0 c 1.15893,1.83293 2.5662,3.72498 4.05625,5.65251 v 0 c 0.7805,0.94603 1.53735,1.92753 2.38881,2.89721 v 0 c 0.42572,0.47301 0.83963,0.95785 1.26536,1.45451 v 0 c 0.44937,0.47302 0.89876,0.94603 1.35996,1.43087 v 0 c 0.88694,0.96968 1.86848,1.90388 2.81454,2.86173 v 0 c 0.96972,0.95785 1.99856,1.88023 2.99193,2.81443 v 0 c 1.04067,0.92238 2.08134,1.83293 3.122,2.7553 v 0 c 1.06433,0.88611 2.105,1.79666 3.18114,2.67174 v 0 c 1.0998,0.86325 2.1523,1.75015 3.27575,2.55427 v 0 c 1.12345,0.81595 2.2469,1.60825 3.38217,2.35324 v 0 c 1.17076,0.73317 2.32968,1.44269 3.48861,2.11674 v 0 c 1.18258,0.65039 2.36516,1.26531 3.51226,1.85657 v 0 c 1.13528,0.61492 2.31786,1.12341 3.42948,1.65555 v 0 c 1.13528,0.49667 2.1996,1.01698 3.28757,1.43087 v 0 c 2.1523,0.87507 4.13903,1.65554 5.9602,2.25864 v 0 c 1.82117,0.60309 3.40583,1.12342 4.76579,1.47819 v 0 c 1.35997,0.3666 2.42429,0.65039 3.15749,0.81596 v 0 c 0.7332,0.17736 1.13528,0.26014 1.13528,0.26014 v 0 l 0.35477,-0.43754 c 0,0 -0.29564,-0.21285 -0.85146,-0.60309 v 0 c -0.55581,-0.37841 -1.38361,-0.92239 -2.44794,-1.60826 v 0 c -1.05249,-0.67405 -2.3415,-1.49 -3.8079,-2.4242 v 0 c -1.50188,-0.91055 -3.11018,-1.98665 -4.93135,-3.08641 v 0 c -0.89877,-0.55579 -1.82118,-1.15888 -2.77907,-1.7738 v 0 c -0.95789,-0.60309 -1.96308,-1.21801 -2.96827,-1.8684 v 0 c -0.99337,-0.66222 -2.03404,-1.32444 -3.11018,-1.99848 v 0 c -1.04067,-0.68587 -2.11682,-1.37174 -3.24027,-2.05761 v 0 c -2.22325,-1.39539 -4.51745,-2.83808 -6.84713,-4.30364 v 0 c -1.15893,-0.73317 -2.27056,-1.51364 -3.41766,-2.29411 v 0 c -1.13527,-0.78047 -2.1996,-1.60825 -3.29939,-2.42419 v 0 c -2.12865,-1.66738 -4.20999,-3.38205 -6.13759,-5.1322 v 0 c -0.48486,-0.43754 -0.95789,-0.87507 -1.44274,-1.31261 v 0 c -0.46121,-0.43754 -0.92242,-0.87508 -1.38362,-1.31261 v 0 c -0.93424,-0.87508 -1.7857,-1.76198 -2.64898,-2.63705 v 0 c -3.37035,-3.51213 -6.19672,-6.96512 -8.32536,-10.02788 v 0 c -2.15229,-3.06277 -3.63052,-5.73529 -4.58841,-7.62734 v 0 c -0.93423,-1.89205 -1.30083,-3.00364 -1.30083,-3.00364 v 0 z" />
  </g>
</svg>
