<?xml version="1.0" encoding="UTF-8" standalone="no"?>
<!-- Created with Inkscape (http://www.inkscape.org/) -->

<svg
   xmlns:dc="http://purl.org/dc/elements/1.1/"
   xmlns:cc="http://creativecommons.org/ns#"
   xmlns:rdf="http://www.w3.org/1999/02/22-rdf-syntax-ns#"
   xmlns:svg="http://www.w3.org/2000/svg"
   xmlns="http://www.w3.org/2000/svg"
   xmlns:sodipodi="http://sodipodi.sourceforge.net/DTD/sodipodi-0.dtd"
   xmlns:inkscape="http://www.inkscape.org/namespaces/inkscape"
   width="84.684067mm"
   height="91.424385mm"
   viewBox="0 0 84.684067 91.424385"
   version="1.1"
   id="svg5005"
   inkscape:version="0.92.4 (5da689c313, 2019-01-14)"
   sodipodi:docname="Logo.svg">
  <defs
     id="defs4999">
    <clipPath
       id="clipPath4347"
       clipPathUnits="userSpaceOnUse">
      <path
         style="clip-rule:evenodd"
         inkscape:connector-curvature="0"
         id="path4345"
         d="M -1.5259e-5,1.2207e-4 H 595.31998 V 841.92012 H -1.5259e-5 Z" />
    </clipPath>
    <clipPath
       id="clipPath4357"
       clipPathUnits="userSpaceOnUse">
      <path
         inkscape:connector-curvature="0"
         id="path4355"
         d="M 0,0 H 119.09 V 113.42 H 0 Z" />
    </clipPath>
    <clipPath
       id="clipPath4303"
       clipPathUnits="userSpaceOnUse">
      <path
         style="clip-rule:evenodd"
         inkscape:connector-curvature="0"
         id="path4301"
         d="M 1.5259e-5,3.0518e-4 H 595.32002 V 841.92031 H 1.5259e-5 Z" />
    </clipPath>
    <clipPath
       id="clipPath4313"
       clipPathUnits="userSpaceOnUse">
      <path
         inkscape:connector-curvature="0"
         id="path4311"
         d="M 0,0 H 15.428 V 26.764 H 0 Z" />
    </clipPath>
    <clipPath
       id="clipPath4275"
       clipPathUnits="userSpaceOnUse">
      <path
         style="clip-rule:evenodd"
         inkscape:connector-curvature="0"
         id="path4273"
         d="M 1.5259e-5,3.0518e-4 H 595.32002 V 841.92031 H 1.5259e-5 Z" />
    </clipPath>
    <clipPath
       id="clipPath4285"
       clipPathUnits="userSpaceOnUse">
      <path
         inkscape:connector-curvature="0"
         id="path4283"
         d="M 0,0 H 430.91 V 462.07 H 0 Z" />
    </clipPath>
  </defs>
  <sodipodi:namedview
     id="base"
     pagecolor="#ffffff"
     bordercolor="#666666"
     borderopacity="1.0"
     inkscape:pageopacity="0.0"
     inkscape:pageshadow="2"
     inkscape:zoom="0.35"
     inkscape:cx="-217.10996"
     inkscape:cy="141.34193"
     inkscape:document-units="mm"
     inkscape:current-layer="layer1"
     showgrid="false"
     fit-margin-top="0"
     fit-margin-left="0"
     fit-margin-right="0"
     fit-margin-bottom="0"
     inkscape:window-width="1920"
     inkscape:window-height="1017"
     inkscape:window-x="-8"
     inkscape:window-y="-8"
     inkscape:window-maximized="1" />
  <metadata
     id="metadata5002">
    <rdf:RDF>
      <cc:Work
         rdf:about="">
        <dc:format>image/svg+xml</dc:format>
        <dc:type
           rdf:resource="http://purl.org/dc/dcmitype/StillImage" />
        <dc:title></dc:title>
      </cc:Work>
    </rdf:RDF>
  </metadata>
  <g
     inkscape:label="Ebene 1"
     inkscape:groupmode="layer"
     id="layer1"
     transform="translate(-163.27701,-94.805664)">
    <g
       id="g4269"
       transform="matrix(0.35277777,0,0,-0.35277777,102.72228,327.34897)">
      <g
         id="g4271"
         clip-path="url(#clipPath4275)">
        <g
           id="g4277"
           transform="matrix(3.3437,-7.54e-7,0,3.5854,171.65,401.03)">
          <g
             id="g4279"
             transform="scale(0.16709,0.15582)">
            <g
               id="g4281"
               clip-path="url(#clipPath4285)">
              <g
                 id="g4287">
                <g
                   id="g4289">
                  <g
                     id="g4291" />
                </g>
                <path
                   d="m 30,454.87 -0.06,-0.18 c -4.38,-10.2 -7.8,-19.92 -11.04,-29.94 v 0 c -3.24,-10.02 -6,-20.04 -8.4,-30.12 v 0 C 5.76,374.41 2.28,354.01 0.78,333.43 v 0 C 0,323.17 -0.18,312.79 0.18,302.47 v 0 c 0.3,-10.38 1.38,-20.76 3,-31.08 v 0 c 3.48,-20.7 9.54,-41.34 19.44,-61.2 v 0 c 4.86,-9.96 10.86,-19.62 17.52,-29.1 v 0 c 6.72,-9.42 14.46,-18.48 23.04,-27.12 v 0 c 8.76,-8.58 18.36,-16.68 28.74,-24.18 v 0 c 10.44,-7.5 21.66,-14.34 33.6,-20.4 v 0 C 137.4,103.21 150,97.934 162.9,93.194 v 0 c 12.96,-4.74 26.4,-8.46 39.9,-11.94 v 0 c 6.9,-1.44 13.62,-3.12 20.58,-4.32 v 0 l 10.32,-1.86 c 3.48,-0.54 6.96,-1.08 10.44,-1.56 v 0 c 6.96,-1.08 13.98,-1.74 20.94,-2.52 v 0 c 7.02,-0.72 14.04,-1.14 21.06,-1.68 v 0 l 0.6,2.58 c -13.38,2.82 -26.7,5.7 -39.66,9.18 v 0 c -13.02,3.24 -25.62,7.26 -37.98,11.4 v 0 c -12.18,4.38 -24.18,8.936 -35.4,14.336 v 0 c -11.28,5.28 -22.2,10.86 -32.16,17.22 v 0 c -10.02,6.36 -19.44,13.02 -28.14,20.16 v 0 c -8.58,7.2 -16.38,14.88 -23.34,22.86 v 0 c -7.08,7.98 -13.38,16.26 -18.78,24.9 v 0 c -5.46,8.64 -9.96,17.58 -14.04,26.58 v 0 c -4.14,9.06 -7.32,18.36 -10.02,27.72 v 0 c -2.82,9.36 -4.92,18.84 -6.6,28.38 v 0 c -1.8,9.54 -2.82,19.2 -3.6,28.86 v 0 c -0.78,9.72 -1.02,19.44 -0.96,29.16 v 0 c 0.24,19.5 2.04,39.12 5.64,58.56 v 0 c 1.74,9.48 3.84,18.9 6.3,28.32 v 0 c 6.12,-8.16 12.66,-16.14 19.8,-23.76 v 0 c 7.44,-8.22 15.66,-16.08 24.12,-23.76 v 0 L 105,360.79 c 4.5,-3.6 9.24,-7.14 13.86,-10.68 v 0 c 2.34,-1.74 4.56,-3.6 7.02,-5.28 v 0 l 7.38,-5.04 c 4.98,-3.3 9.72,-6.78 14.94,-9.9 v 0 c 10.44,-6.24 20.46,-12.72 31.56,-18.3 v 0 l 16.38,-8.58 17.16,-7.92 c 11.4,-5.52 23.04,-9.84 34.62,-14.46 v 0 l 17.46,-6.84 c 2.82,-1.08 5.7,-2.16 8.46,-3.3 v 0 l 8.1,-3.72 c 5.58,-2.34 10.5,-5.22 15.72,-7.86 v 0 c 2.64,-1.32 4.92,-2.94 7.38,-4.38 v 0 c 2.4,-1.5 4.98,-2.88 7.2,-4.56 v 0 c 9.3,-6.24 17.4,-13.32 24.48,-20.88 v 0 c 7.02,-7.62 12.36,-16.02 16.38,-24.66 v 0 c 7.92,-17.46 9.12,-36.42 5.16,-54.9 v 0 c -1.92,-9.24 -5.04,-18.36 -9.12,-27.3 v 0 C 345,113.35 339.9,104.53 333.66,96.374 v 0 l 3.12,-1.38 c 7.02,8.216 12.72,16.916 17.64,25.856 v 0 c 4.8,9 8.7,18.24 11.34,27.78 v 0 c 5.28,18.96 5.28,39 -2.16,58.02 v 0 c -3.72,9.48 -8.94,18.72 -16.08,27.24 v 0 c -7.2,8.4 -15.54,16.38 -25.2,23.4 v 0 c -2.28,1.92 -4.92,3.42 -7.38,5.16 v 0 c -2.58,1.62 -4.98,3.42 -7.68,4.92 v 0 c -5.4,3 -10.56,6.3 -16.26,9 v 0 l -8.46,4.14 c -2.82,1.38 -5.82,2.58 -8.7,3.84 v 0 l -17.04,7.38 c -11.28,4.92 -23.04,9.54 -33.3,15 v 0 l -15.9,7.86 -15.3,8.64 c -10.44,5.58 -19.74,12.06 -29.46,18.24 v 0 c -4.8,3.06 -9.12,6.54 -13.74,9.78 v 0 l -6.84,4.98 c -2.28,1.62 -4.26,3.48 -6.42,5.16 v 0 c -4.26,3.54 -8.58,6.96 -12.72,10.5 v 0 l -11.94,10.92 c -7.56,7.44 -15,15 -21.66,22.92 v 0 c -6.78,7.8 -12.84,15.9 -18.48,24.12 v 0 c -2.58,4.14 -5.4,8.28 -7.68,12.48 v 0 c -1.2,2.04 -2.34,4.14 -3.36,6.24 v 0 c -0.54,1.08 -1.14,2.1 -1.56,3.12 v 0 c -0.42,1.02 -0.96,2.16 -1.26,2.88 v 0 c -1.26,3.24 -4.74,6 -9.48,7.02 v 0 c -1.38,0.36 -2.76,0.48 -4.14,0.48 v 0 c -6.06,0 -11.7,-2.82 -13.56,-7.2"
                   style="fill:#79af4d;fill-opacity:1;fill-rule:evenodd;stroke:none"
                   id="path4293"
                   inkscape:connector-curvature="0" />
                <path
                   d="m 103.74,285.91 c 0,0 0.96,-5.94 4.08,-16.08 v 0 c 1.56,-5.04 3.66,-11.16 6.54,-18.12 v 0 c 3,-6.9 6.36,-14.7 10.86,-23.04 v 0 c 4.38,-8.34 9.54,-17.28 15.6,-26.58 v 0 c 5.88,-9.3 13.02,-18.9 20.58,-28.68 v 0 c 3.96,-4.8 7.8,-9.78 12.12,-14.7 v 0 c 2.16,-2.4 4.26,-4.86 6.42,-7.38 v 0 c 2.28,-2.4 4.56,-4.8 6.9,-7.26 v 0 c 4.5,-4.92 9.48,-9.66 14.28,-14.52 v 0 c 4.92,-4.86 10.14,-9.54 15.18,-14.28 v 0 c 5.28,-4.68 10.56,-9.3 15.84,-13.98 v 0 c 5.4,-4.496 10.68,-9.116 16.14,-13.556 v 0 c 5.58,-4.38 10.92,-8.88 16.62,-12.96 v 0 c 5.7,-4.14 11.4,-8.16 17.16,-11.94 v 0 c 5.94,-3.72 11.82,-7.32 17.7,-10.74 v 0 c 6,-3.3 12,-6.42 17.82,-9.42 v 0 c 5.76,-3.12 11.76,-5.7 17.4,-8.4 v 0 c 5.76,-2.52 11.16,-5.16 16.68,-7.26 v 0 c 10.92,-4.44 21,-8.4 30.24,-11.46 v 0 c 9.24,-3.06 17.28,-5.7001 24.18,-7.5001 v 0 c 6.9,-1.8601 12.3,-3.3 16.02,-4.1401 v 0 c 3.72,-0.8999 5.76,-1.3199 5.76,-1.3199 v 0 l 1.8,2.22 c 0,0 -1.5,1.08 -4.32,3.06 v 0 c -2.82,1.92 -7.02,4.6801 -12.42,8.1601 v 0 c -5.34,3.42 -11.88,7.56 -19.32,12.3 v 0 c -7.62,4.62 -15.78,10.08 -25.02,15.66 v 0 c -4.56,2.82 -9.24,5.88 -14.1,9 v 0 c -4.86,3.06 -9.96,6.18 -15.06,9.48 v 0 c -5.04,3.36 -10.32,6.72 -15.78,10.14 v 0 c -5.28,3.48 -10.74,6.96 -16.44,10.44 v 0 c -11.28,7.08 -22.92,14.4 -34.74,21.836 v 0 c -5.88,3.72 -11.52,7.68 -17.34,11.64 v 0 c -5.76,3.96 -11.16,8.16 -16.74,12.3 v 0 c -10.8,8.46 -21.36,17.16 -31.14,26.04 v 0 c -2.46,2.22 -4.86,4.44 -7.32,6.66 v 0 c -2.34,2.22 -4.68,4.44 -7.02,6.66 v 0 c -4.74,4.44 -9.06,8.94 -13.44,13.38 v 0 c -17.1,17.82 -31.44,35.34 -42.24,50.88 v 0 c -10.92,15.54 -18.42,29.1 -23.28,38.7 v 0 c -4.74,9.6 -6.6,15.24 -6.6,15.24 v 0 z"
                   style="fill:#79af4d;fill-opacity:1;fill-rule:evenodd;stroke:none"
                   id="path4295"
                   inkscape:connector-curvature="0" />
              </g>
            </g>
          </g>
        </g>
      </g>
    </g>
    <g
       id="g4297"
       transform="matrix(0.35277777,0,0,-0.35277777,102.72228,327.34897)">
      <g
         id="g4299"
         clip-path="url(#clipPath4303)">
        <g
           id="g4305"
           transform="matrix(1.8569,-3.77e-7,0,3.2198,224.65,395.31)">
          <g
             id="g4307"
             transform="scale(4.6668,2.6902)">
            <g
               id="g4309"
               clip-path="url(#clipPath4313)">
              <g
                 id="g4315">
                <g
                   id="g4317">
                  <g
                     id="g4319" />
                </g>
                <path
                   d="M 13.5,26.764 H 1.8 c -1.02,0 -1.8,-0.78 -1.8,-1.8 V 2.284 C 0,1.324 0.78,0.54401 1.8,0.54401 h 11.7 c 0.96,0 1.74,0.77999 1.74,1.73999 v 22.68 c 0,1.02 -0.78,1.8 -1.74,1.8 z m -7.74,-1.26 h 3.72 c 0.12,0 0.24,-0.12 0.24,-0.24 0,-0.12 -0.12,-0.18 -0.24,-0.18 H 5.76 c -0.12,0 -0.24,0.06 -0.24,0.18 0,0.12 0.12,0.24 0.24,0.24 z M 7.62,1.384 c -0.48,0 -0.9,0.42 -0.9,0.9 0,0.48 0.42,0.9 0.9,0.9 0.48,0 0.9,-0.42 0.9,-0.9 0,-0.48 -0.42,-0.9 -0.9,-0.9 z m 6.42,2.4 H 1.26 v 20.16 h 12.78 z"
                   style="fill:#000000;fill-opacity:1;fill-rule:nonzero;stroke:none"
                   id="path4321"
                   inkscape:connector-curvature="0" />
              </g>
            </g>
          </g>
        </g>
      </g>
    </g>
    <path
       d="m 185.78381,176.3495 h 39.33472 v -61.54208 h -39.33472 z"
       style="fill:#ffffff;fill-opacity:0.83136998;fill-rule:evenodd;stroke:none;stroke-width:0.35277778"
       id="path4323"
       inkscape:connector-curvature="0" />
    <g
       id="g4341"
       transform="matrix(0.35277777,0,0,-0.35277777,102.72228,327.34897)">
      <g
         id="g4343"
         clip-path="url(#clipPath4347)">
        <g
           id="g4349"
           transform="matrix(1.5486,-7.54e-7,-3.77e-7,1.5729,235.35,461.28)">
          <g
             id="g4351"
             transform="scale(0.60458,0.63483)">
            <g
               id="g4353"
               clip-path="url(#clipPath4357)">
              <g
                 id="g4359">
                <g
                   id="g4361">
                  <g
                     id="g4363" />
                </g>
                <path
                   d="M 13.98,99.436 V 85.816 H 118.32 V 100.16 L 65.76,113.42 Z"
                   style="fill:#00608e;fill-opacity:1;fill-rule:nonzero;stroke:none"
                   id="path4365"
                   inkscape:connector-curvature="0" />
                <path
                   d="M 21,0.49633 48.66,80.536 H 27.6 L 0,0.49633 Z"
                   style="fill:#00608e;fill-opacity:1;fill-rule:nonzero;stroke:none"
                   id="path4367"
                   inkscape:connector-curvature="0" />
                <path
                   d="m 85.2,61.576 h 22.98 v 18.96 H 85.2 Z"
                   style="fill:#00608e;fill-opacity:1;fill-rule:nonzero;stroke:none"
                   id="path4369"
                   inkscape:connector-curvature="0" />
                <path
                   d="m 85.2,31.036 h 22.98 v 18.9 H 85.2 Z"
                   style="fill:#bc261a;fill-opacity:1;fill-rule:nonzero;stroke:none"
                   id="path4371"
                   inkscape:connector-curvature="0" />
                <path
                   d="m 85.2,0.49633 h 22.98 v 18.9 H 85.2 Z"
                   style="fill:#00608e;fill-opacity:1;fill-rule:nonzero;stroke:none"
                   id="path4373"
                   inkscape:connector-curvature="0" />
              </g>
            </g>
          </g>
        </g>
      </g>
    </g>
  </g>
</svg>
